:SAMPLES-PER-SECOND 30
:FRAME-RANGE 1-663
:FULLY-SPECIFIED
:DEGREES
518
root  -13.2213 38.9741 -86.9751 -175.425 25.0558 176.921
RightUpLeg  9.40333 -14.2673 -13.3051
RightLeg  13.8175 -14.0486 -3.04638
RightFoot  -12.7561 0.167991 20.4753
RightToes  -3.4386e-010 1.2921e-014 -6.02303e-014
Spine  -7.69051 1.69633 6.98933
Spine1  9.72684 3.38155 -8.24856
HEad  15.1793 12.6401 -5.34508
LeftShoulder1  0.269274 2.34219 -21.863
LeftArm  -8.52978 31.7509 -38.5989
LeftForeArm  12.1622 7.55471 -10.0302
LeftHand  -0.0259188 5.82832 1.19097
RightShoulder  2.30864 4.25039 24.5025
RightArm  45.5707 17.2681 70.5396
RightForeArm  27.5005 10.7026 15.0407
RightHand  0.153746 -7.04678 -12.3699
LeftUpLeg  -21.3857 1.68284 2.5311
LeftLeg  1.35966 27.6393 4.18439
LeftFoot  7.30227 0.747028 -4.82106
LeftToes  -7.12384e-010 -7.51861e-011 -8.34901e-011
519
root  -13.5994 38.9046 -88.2415 -175.865 23.335 175.207
RightUpLeg  9.36727 -15.0954 -16.78
RightLeg  17.5429 -11.9875 -4.39216
RightFoot  -11.2426 -0.099608 25.5483
RightToes  -3.4386e-010 1.2921e-014 -6.02303e-014
Spine  -8.18929 1.72399 4.44678
Spine1  10.0475 3.49059 -8.30348
HEad  15.6797 10.785 -4.39325
LeftShoulder1  0.28136 2.302 -21.9514
LeftArm  -9.45885 32.9466 -38.2442
LeftForeArm  14.7119 7.54617 -9.97032
LeftHand  -0.0228554 6.35306 1.23854
RightShoulder  2.28936 4.18804 24.4981
RightArm  42.2034 16.4411 69.5712
RightForeArm  29.0157 10.718 14.8234
RightHand  0.153181 -7.03869 -12.3875
LeftUpLeg  -21.9374 1.25249 0.0191143
LeftLeg  4.6478 25.9888 4.03263
LeftFoot  6.92596 0.843253 -5.50541
LeftToes  -7.12384e-010 -7.51861e-011 -8.34901e-011
520
root  -14.0183 38.8785 -89.4664 -176.188 21.2908 173.902
RightUpLeg  7.88828 -13.2711 -19.3781
RightLeg  23.9128 -12.0482 -5.99157
RightFoot  -8.21404 -0.876253 29.4026
RightToes  -3.4386e-010 1.2921e-014 -6.02303e-014
Spine  -8.13638 1.82248 3.15836
Spine1  9.96208 3.74484 -9.25401
HEad  17.0134 8.40838 -3.59448
LeftShoulder1  0.293974 2.26319 -22.1267
LeftArm  -9.82339 32.4861 -37.7755
LeftForeArm  17.5893 7.55116 -10.0345
LeftHand  -0.0202323 6.86874 1.22707
RightShoulder  2.25034 4.10828 24.2879
RightArm  27.4168 15.1591 68.169
RightForeArm  40.2683 7.27239 15.512
RightHand  0.10223 -6.51661 -12.6791
LeftUpLeg  -21.4819 0.727751 -2.34105
LeftLeg  6.2899 25.0031 3.55784
LeftFoot  6.3361 1.08378 -7.21209
LeftToes  -7.12384e-010 -7.51861e-011 -8.34901e-011
521
root  -14.4744 39.0224 -90.699 -176.25 19.5022 173.777
RightUpLeg  4.11993 -12.0913 -20.3862
RightLeg  33.4687 -12.7896 -9.18286
RightFoot  -2.1856 -1.86769 22.8526
RightToes  -3.4386e-010 1.2921e-014 -6.02303e-014
Spine  -7.71609 2.02693 3.72543
Spine1  9.34461 4.06833 -10.0544
HEad  18.4519 6.1969 -3.30266
LeftShoulder1  0.280793 2.31892 -22.4017
LeftArm  -10.0044 31.3583 -37.7621
LeftForeArm  19.5334 7.54902 -10.0674
LeftHand  -0.022424 7.21595 0.991331
RightShoulder  2.1699 3.95112 23.8075
RightArm  12.083 13.6427 66.8357
RightForeArm  51.1077 3.72082 15.254
RightHand  0.101106 -6.46592 -13.0845
LeftUpLeg  -20.0972 0.128868 -4.05774
LeftLeg  6.38253 23.3844 2.89563
LeftFoot  5.51063 0.653515 -4.63725
LeftToes  -7.12384e-010 -7.51861e-011 -8.34901e-011
522
root  -14.8524 39.1948 -91.8685 -176.249 17.2558 174.243
RightUpLeg  -0.414849 -10.9962 -19.6008
RightLeg  43.0638 -13.2407 -13.1817
RightFoot  4.72007 -1.32509 9.60106
RightToes  -3.4386e-010 1.2921e-014 -6.02303e-014
Spine  -7.7224 1.82181 3.96924
Spine1  9.25827 3.78081 -9.70477
HEad  19.582 4.54574 -3.23474
LeftShoulder1  0.270212 2.3691 -22.823
LeftArm  -9.60702 29.8573 -38.1595
LeftForeArm  19.6989 7.58028 -10.2688
LeftHand  -0.0248852 7.02152 0.872187
RightShoulder  2.15325 3.9484 23.5761
RightArm  0.564717 12.6939 65.5409
RightForeArm  58.1601 0.611783 14.2519
RightHand  0.0675587 -6.0862 -14.224
LeftUpLeg  -18.2074 -0.369292 -5.22244
LeftLeg  5.86904 21.5135 2.33842
LeftFoot  4.72657 0.324959 -2.506
LeftToes  -7.12384e-010 -7.51861e-011 -8.34901e-011
523
root  -15.0821 39.1326 -92.8116 -176.55 14.2137 174.05
RightUpLeg  -3.56273 -9.35181 -19.0999
RightLeg  50.0024 -8.99352 -11.6315
RightFoot  2.00337 -1.01418 8.77033
RightToes  -3.4386e-010 1.2921e-014 -6.02303e-014
Spine  -7.38113 1.17896 1.71404
Spine1  9.55525 2.7942 -8.70661
HEad  20.6878 2.75518 -2.9136
LeftShoulder1  0.351914 2.08732 -22.8466
LeftArm  -9.01487 28.0026 -39.2607
LeftForeArm  19.1939 7.62399 -10.5298
LeftHand  -0.0251064 6.52993 0.949021
RightShoulder  2.08412 3.66034 23.8187
RightArm  -6.83543 12.0299 64.2318
RightForeArm  61.8383 -1.7917 12.6673
RightHand  0.0480972 -5.88139 -15.1773
LeftUpLeg  -17.7264 -0.579736 -6.62512
LeftLeg  8.31855 18.6117 2.41037
LeftFoot  2.43001 0.197574 -1.75837
LeftToes  -7.12384e-010 -7.51861e-011 -8.34901e-011
524
root  -15.2484 39.0423 -93.7223 -176.845 10.4739 173.804
RightUpLeg  -6.18946 -8.48321 -18.4813
RightLeg  54.8602 -4.50267 -7.24421
RightFoot  -1.8817 -0.764078 9.06096
RightToes  -3.4386e-010 1.2921e-014 -6.02303e-014
Spine  -7.00776 0.28951 -0.871228
Spine1  9.75703 1.47827 -7.50245
HEad  21.9463 0.717524 -2.47032
LeftShoulder1  0.529502 1.46742 -22.7532
LeftArm  -8.20525 25.3017 -40.5746
LeftForeArm  19.6626 7.66659 -10.8125
LeftHand  -0.0262065 5.97562 1.02657
RightShoulder  2.00983 3.33708 24.1679
RightArm  -10.1996 10.9013 62.8097
RightForeArm  61.8627 -2.92372 11.1796
RightHand  0.0438724 -5.81303 -16.1366
LeftUpLeg  -17.1334 -1.39958 -8.20213
LeftLeg  10.7536 15.6482 2.92653
LeftFoot  0.0819601 0.142251 -1.42761
LeftToes  -7.12384e-010 -7.51861e-011 -8.34901e-011
525
root  -15.3704 38.9979 -94.6648 -177.028 6.85669 174.031
RightUpLeg  -8.93781 -6.69014 -16.6338
RightLeg  57.8694 -2.4383 -4.63034
RightFoot  -3.0358 -0.70989 9.47067
RightToes  -3.4386e-010 1.2921e-014 -6.02303e-014
Spine  -6.48032 -0.396688 -2.45433
Spine1  9.49393 0.449369 -6.63153
HEad  22.9948 -1.93032 -1.74443
LeftShoulder1  0.714254 0.824149 -22.7293
LeftArm  -6.94434 21.3037 -41.8905
LeftForeArm  21.3807 7.72627 -11.2508
LeftHand  -0.0265949 5.60549 1.33691
RightShoulder  1.91979 2.9807 24.4572
RightArm  -12.7166 9.11284 61.2551
RightForeArm  61.3386 -3.56635 10.0491
RightHand  0.059924 -5.89855 -16.9241
LeftUpLeg  -16.1691 -1.8081 -9.13063
LeftLeg  12.677 12.4622 3.08606
LeftFoot  -2.06493 0.0801088 -0.834172
LeftToes  -7.12384e-010 -7.51861e-011 -8.34901e-011
